<svg height="32" id="svg2" xmlns="http://www.w3.org/2000/svg" xmlns:xlink="http://www.w3.org/1999/xlink" viewBox="0 0 2488.3776 689.4863"><defs><style>.cls-1{fill:none;}.cls-2{fill:#fff;}.cls-3{clip-path:url(#clip-path);}.cls-4{fill:#d5e5ee;}.cls-5{fill:#6293c6;}</style><clipPath id="clip-path" transform="translate(-5.2565 -4.6724)"><rect className="cls-1" x="5.256" y="4.6734" width="2488.3745" height="689.4879"/></clipPath></defs><title>logo</title><g id="g8"><path id="path12" className="cls-2" d="M1228.9439,318.828h-21.4293v-232.4h21.4293Z" transform="translate(-5.2565 -4.6724)"/><g id="g14"><g className="cls-3"><g id="g16"><g id="g22"><path id="path24" className="cls-2" d="M1458.3349,148.7107c33.8213,0,51.5613,23.1027,51.5613,68.3133V318.8227H1488.81V222.044c0-36.4986-10.384-53.912-34.8266-53.912-28.1307,0-47.2254,22.4414-47.2254,63.9614v86.7293h-20.752V222.044c0-36.164-10.384-53.912-34.8253-53.912-28.132,0-47.2187,22.4414-47.2187,63.9614v86.7293h-21.1026V152.0574H1302.28V183.536c11.388-22.768,30.4747-34.8253,53.2427-34.8253,23.4453,0,40.1893,12.392,48.2306,36.8347,11.7147-23.7734,31.4787-36.8347,54.5814-36.8347" transform="translate(-5.2565 -4.6724)"/></g><g id="g26"><path id="path28" className="cls-2" d="M1579.5626,388.8113H1558.46V152.0593h19.4213v32.8173c12.7267-23.772,33.4867-36.4986,57.5947-36.4986,39.8547,0,66.9733,31.8133,66.9733,84.7213,0,54.5813-27.7893,87.7333-69.3093,87.7333-22.768,0-41.8627-10.7107-53.5773-30.4733Zm51.896-222.3507c-29.7974,0-51.896,25.1107-51.896,67.6427,0,44.54,19.748,69.652,51.5693,69.652,28.124,0,48.5493-25.4467,48.5493-69.3174,0-43.536-18.752-67.9773-48.2226-67.9773" transform="translate(-5.2565 -4.6724)"/></g><g id="g30"><path id="path32" className="cls-2" d="M1852.1516,318.8255H1833.4V290.0242c-12.4,20.4333-31.4854,31.144-55.5934,31.144-32.4826,0-52.908-19.4214-52.908-47.8867,0-34.8266,29.8054-56.256,85.056-56.256h21.4294c0-2.008.3346-3.6813.3346-5.6893,0-28.132-15.0693-44.2067-39.1773-44.2067-16.7427,0-32.148,4.352-47.8946,14.0667V160.7709c16.4173-8.0414,33.4946-12.392,50.2386-12.392,38.1733,0,57.2667,21.4293,57.2667,63.9613Zm-105.1547-46.8826c0,18.7586,13.0613,32.148,33.4867,32.148,30.4746,0,50.9-20.4254,50.9-54.5827v-15.404h-23.4374c-39.8466,0-60.9493,14.0653-60.9493,37.8386" transform="translate(-5.2565 -4.6724)"/></g><g id="g34"><path id="path36" className="cls-2" d="M2008.87,178.1812c-11.0454-6.0254-23.4454-8.7107-37.8387-8.7107-35.168,0-60.948,26.124-60.948,65.9707,0,40.8573,23.444,65.9693,59.6093,65.9693,12.72,0,25.7814-3.012,39.512-9.0374l2.008,20.76a118.9575,118.9575,0,0,1-42.8586,7.6987c-48.564,0-80.712-33.8213-80.712-85.7253,0-50.2307,34.1626-84.3867,84.3866-84.3867a110.5677,110.5677,0,0,1,38.5147,6.3667Z" transform="translate(-5.2565 -4.6724)"/></g><g id="g38"><path id="path40" className="cls-2" d="M2076.85,152.06h38.8494v17.0787H2076.85v97.4479c0,25.112,5.0214,36.164,23.772,36.164a43.7317,43.7317,0,0,0,17.0787-3.6813v19.0867a77.0508,77.0508,0,0,1-21.4293,3.012c-30.8094,0-40.516-15.404-40.516-50.9V169.1382h-34.164V152.06h34.164V109.87l21.0946-7.372Z" transform="translate(-5.2565 -4.6724)"/></g><g id="g42"><path id="path44" className="cls-2" d="M2273.7554,239.1263H2155.8821c1.3386,42.532,22.768,65.6347,60.272,65.6347,15.0693,0,29.804-4.016,44.8813-12.0574v20.76a116.042,116.042,0,0,1-46.8827,9.38c-49.2266,0-78.696-32.8173-78.696-88.404,0-52.58,30.132-86.3946,73.34-86.3946,38.8427,0,64.9587,29.4626,64.9587,79.024Zm-67.308-73.3333c-26.4587,0-46.5493,21.4293-49.896,57.9293H2253.33c-2.3507-37.504-19.0867-57.9293-46.8827-57.9293" transform="translate(-5.2565 -4.6724)"/></g><g id="g46"><path id="path48" className="cls-2" d="M2381.9186,172.1532a54.6793,54.6793,0,0,0-11.7146-1.6734c-27.4627,0-44.876,21.764-44.876,59.9374v88.4106h-21.1014V152.0625h19.428v35.16c8.368-24.1147,25.7814-37.5027,47.5534-37.5027a70.6154,70.6154,0,0,1,10.7106,1.004Z" transform="translate(-5.2565 -4.6724)"/></g><g id="g50"><path id="path52" className="cls-2" d="M1189.7194,388.8788h69.004q45.144,0,66.8853,17.7333,21.7241,17.75,21.7267,54.544,0,34.008-22.716,52.804-22.728,18.8121-64.2587,18.804h-24.8666v88.4707h-45.7747Zm45.7747,32.6987v78.488h18.804q22.416,0,34.3426-10.0494,11.9381-10.074,11.9454-28.86,0-18.978-11.3734-29.2773-11.3679-10.2979-32.2893-10.3013Z" transform="translate(-5.2565 -4.6724)"/></g><g id="g54"><path id="path56" className="cls-2" d="M1488.2151,465.6436q-17.572-18.5539-55.8467-18.5506h-54.0907v29.4333h43.804q19.95,0,30.9054,9.5573,10.9579,9.5741,10.964,26.904v2.44h-22.4187q-44.63,0-67.0333,14.1547-22.404,14.138-22.4107,42.428,0,23.71,15.7013,38.6787,15.71,14.9519,41.208,14.9586a65.5314,65.5314,0,0,0,32.3787-8.0933q14.538-8.088,25.1853-23.7867l.648,27.4613h38.5814V524.4276q0-40.2219-17.576-58.784m-24.264,83.6427q0,20.118-11.6187,32.78-11.614,12.6759-29.604,12.6827-12.4179,0-20.112-6.9547-7.688-6.95-7.6773-18.0747,0-14.706,13.4933-22.1506,13.49-7.4421,40.1373-7.4387h15.3814Z" transform="translate(-5.2565 -4.6724)"/></g><g id="g58"><path id="path60" className="cls-2" d="M2282.1094,465.6436q-17.5721-18.5539-55.8387-18.5506h-54.0986v29.4333h43.796q19.95,0,30.9133,9.5573,10.956,9.5741,10.964,26.904v2.44h-22.4107q-44.652,0-67.0413,14.1547-22.404,14.138-22.412,42.428,0,23.71,15.7027,38.6787,15.6979,14.9519,41.208,14.9586a65.4913,65.4913,0,0,0,32.3786-8.0933q14.56-8.088,25.1787-23.7867l.6547,27.4613H2299.7V524.4276q0-40.2219-17.5907-58.784m-24.264,83.6427q0,20.118-11.6187,32.78-11.6259,12.6759-29.604,12.6827-12.428,0-20.1133-6.9547-7.6759-6.95-7.676-18.0747,0-14.706,13.4853-22.1506,13.49-7.4421,40.1454-7.4387h15.3813Z" transform="translate(-5.2565 -4.6724)"/></g><g id="g62"><path id="path64" className="cls-2" d="M1674.5637,370.7288h43.484V476.85a59.509,59.509,0,0,1,23.304-22.24q14.304-7.52,33.2787-7.52,29.9119,0,45.292,18.5506,15.362,18.576,15.3746,54.5374V621.2341H1791.3V529.4982q0-23.5421-8.0853-34.744-8.09-11.202-25.26-11.2027-18.322,0-29.1067,14.304-10.788,14.3261-10.8,38.9986v84.38h-43.484Z" transform="translate(-5.2565 -4.6724)"/></g><g id="g66"><path id="path68" className="cls-2" d="M1855.7362,451.5014h46.444l30.252,120.5146c.5427,2.6174,1.1227,6.3227,1.7173,11.12.6027,4.7974,1.108,10.0787,1.548,15.8587q.8241-9.6521,1.8-17.0867a72.4671,72.4671,0,0,1,1.644-9.572l33.0254-120.8346h52.9746l32.5427,121.6666a71.38,71.38,0,0,1,1.3907,8.9867c.476,4.3653,1.004,9.9733,1.548,16.84.6693-9.484,1.1453-15.9187,1.472-19.3027a49.7734,49.7734,0,0,1,.8186-6.204l32.5494-121.9866h42.5026l-53.9573,169.7333h-49.8667l-34.1706-126.8893a99.8223,99.8223,0,0,1-1.9787-10.7187,121.2463,121.2463,0,0,1-.9747-12.6667q-.9819,9.65-1.7173,15.3747a53.504,53.504,0,0,1-1.22,7.1933l-34.8333,127.7067h-50.684Z" transform="translate(-5.2565 -4.6724)"/></g><g id="g70"><path id="path72" className="cls-2" d="M2319.1621,451.5014h47.092l42.1814,129.8266,41.208-129.8266h43.9906l-67.056,177.424q-13.724,36.7759-29.828,51.0039-16.11,14.238-42.4346,14.2294a100.5728,100.5728,0,0,1-10.54-.6547q-6.138-.6581-14.3187-1.956l3.608-34.1787a66.5229,66.5229,0,0,0,7.3413,1.8,38.9548,38.9548,0,0,0,6.88.6547q12.752,0,21.66-7.528,8.9261-7.52,17.0933-25.0147Z" transform="translate(-5.2565 -4.6724)"/></g></g></g></g><g id="g74"><path id="path76" className="cls-2" d="M1301.066,10.596h55.1773V22.2814H1336.018v64.14h-14.9947v-64.14H1301.066Z" transform="translate(-5.2565 -4.6724)"/></g><g id="g78"><g className="cls-3"><g id="g80"><g id="g86"><path id="path88" className="cls-2" d="M1363.4556,4.6724h14.192v34.632a19.4463,19.4463,0,0,1,7.6094-7.2587,23.0815,23.0815,0,0,1,10.86-2.4547q9.762,0,14.78,6.0614,5.01,6.048,5.0133,17.792V86.4257h-14.356V56.487c0-5.1173-.8773-8.904-2.64-11.336q-2.646-3.66-8.2493-3.6586a11.2879,11.2879,0,0,0-9.492,4.6706q-3.5361,4.674-3.5254,12.7267v27.536h-14.192Z" transform="translate(-5.2565 -4.6724)"/></g><g id="g90"><path id="path92" className="cls-2" d="M1478.3022,58.1444v4.4773h-39.0214a15.4349,15.4349,0,0,0,5.4227,11.024q4.8319,4.028,12.7347,4.032a34.543,34.543,0,0,0,8.3906-1.02,33.8635,33.8635,0,0,0,7.876-3.0413V84.5577a42.72,42.72,0,0,1-8.7546,2.484,57.8058,57.8058,0,0,1-10.0267.8253q-13.868,0-21.6893-7.98-7.822-7.9779-7.8174-22.1213,0-12.5861,7.6014-20.3813,7.61-7.788,19.8226-7.788,12.0621,0,18.7667,7.4906,6.684,7.5081,6.6947,21.0574m-12.8614-4.3734q-.6019-7.052-3.9493-10.972a11.01,11.01,0,0,0-8.7627-3.92,11.7539,11.7539,0,0,0-9.0666,3.92q-3.57,3.9281-4.3814,10.972Z" transform="translate(-5.2565 -4.6724)"/></g></g></g></g><g id="g94"><path id="path96" className="cls-2" d="M5.2565,87.6348l267.524,267.5093L5.2565,622.6667h563.692l267.524-267.5226L568.9485,87.6348Z" transform="translate(-5.2565 -4.6724)"/></g><g id="g98"><path id="path100" className="cls-4" d="M954.94,355.1457,687.43,622.67H849.8449l267.524-267.524L849.8449,87.63H687.43Z" transform="translate(-5.2565 -4.6724)"/></g><g id="g102"><g className="cls-3"><g id="g104"><g id="g110"><path id="path112" className="cls-5" d="M811.9855,348.7637c-9.4026,0-15.5306-1.4427-19.4586-8.16-1.6587-2.8267-4.8427-5.1254-8.2414-8.5987-4.0693,3.548-6.9546,6.472-10.384,8.9333-2.4693,1.7787-5.6826,2.9307-8.5533,4.3734-1.6227-2.1267-4.04-4.0974-4.6787-6.3894-2.1426-7.7653-3.4373-15.672-5.52-23.46-.7506-2.8333-2.8266-5.4586-4.2986-8.1813-1.22.1107-2.4547.2373-3.6747.3573q-3.1459,16.602-6.2626,33.2107c-1.4654-.0067-2.916-.0213-4.3747-.0373-2.0973-8.0854-4.232-16.1707-6.3-24.2627-3.2347-12.608-5.9947-25.3053-9.9-37.7947-1.1453-3.6666-5.4453-6.7453-8.308-10.1-3.2213,3.072-6.896,5.9347-9.5067,9.2894-1.9706,2.544-2.6546,5.6986-3.7266,8.6213-2.8414,7.6387-5.392,15.3453-8.4867,22.9253-1.0787,2.6254-3.4587,4.9387-5.244,7.3934-.8707-.0827-1.7333-.1787-2.6187-.26-1.1746-2.76-2.916-5.4534-3.444-8.2867-3.7706-20.3733-6.9613-40.8213-11.0306-61.172a199.0154,199.0154,0,0,0-8.6134-30.0587c-2.268-6.136-6.8506-6.664-12.6-2.112a35.0452,35.0452,0,0,0-7.7293,8.5614c-4.024,6.2853-7.2893,12.8613-11.2013,19.1906-1.4054,2.2614-3.764,4.1734-5.6907,6.2414-1.0187-.1267-2.06-.2454-3.0787-.372-1.2427-4.6414-3.0493-9.2387-3.6146-13.932-2.6267-21.668-4.8054-43.372-7.3947-65.04-.6614-5.6827-2.1347-11.3067-3.2427-16.96-1.1747.016-2.3573.0373-3.5186.0533q-5.388,41.604-10.74,83.196c-1.376-.0227-2.752-.052-4.128-.0747a106.1912,106.1912,0,0,1-1.8454-10.6213c-1.9933-28.98-3.5706-57.988-5.8986-86.9533-1.064-13.284-3.288-26.532-5.512-39.7574-.6387-3.7493-3.116-7.3186-4.7307-10.9706-.9747.1333-1.9413.2666-2.9.408-.916,2.6266-2.3587,5.2146-2.6413,7.892-2.5654,23.2893-5.4374,46.5786-7.2227,69.912-2.268,29.4413-3.5773,58.9266-5.4747,88.3813-.1786,2.8933-1.6733,5.7427-2.5586,8.6133-.9147-.052-1.8294-.0893-2.744-.1333q-6.772-15.52-13.5374-31.0467c-1.5253.036-3.0426.0667-4.5826.104-1.8667,5.4-4.4774,10.7254-5.4747,16.2227-3.9413,21.5333-7.244,43.1333-11.1347,64.6747-.5946,3.2586-3.1013,6.3-4.724,9.44-.9586-.1267-1.9106-.2454-2.8706-.3654-1.264-2.5213-2.9827-4.968-3.6894-7.564-1.9333-7.096-2.7-14.4306-5.3626-21.3333-1.6667-4.2613-5.9587-7.9147-9.068-11.8413-3.6147,3.6813-8.9774,6.9626-10.54,11.0973-4.0614,10.748-6.352,21.8987-9.5427,32.8547-.9373,3.244-2.5213,6.368-4.3666,10.9053-5.5787-3.772-9.58-6.5307-13.6494-9.2093-3.6733-2.4094-7.0067-5.9654-11.2613-6.872-10.4654-2.232-14.8387-8.1827-18.9973-14.884-4.1347-6.7094-8.8134-13.2334-13.3294-19.816-3.176-4.6494-7.9586-9.008-9.3787-13.9467-5.46-18.9373-9.7959-38.076-14.7053-57.1107-.7373-2.804-2.344-5.4893-3.5333-8.2266-.8627-.0147-1.7333-.0294-2.596-.0374-1.488,4.388-3.2587,8.7321-4.4267,13.1734-5.2213,19.9413-10.056,39.9426-15.56,59.84-.8187,3.0133-4.4413,5.564-6.7693,8.3386-2.476-2.6706-6.092-5.0946-7.2293-8.0706-3.1614-8.2854-5.1254-16.84-7.9147-25.216-1.108-3.3174-3.176-6.448-4.812-9.6547-1.0493.112-2.0987.216-3.1614.328-1.2653,3.228-3.2066,6.3893-3.6826,9.684-2.7293,18.8267-5.08,37.6893-7.6307,56.5307-1.0719,7.8853-2.3066,15.7613-3.4666,23.6386q-1.852.4461-3.7041.8774c-2.0533-2.484-4.0986-4.976-6.3226-7.676-5.2213,5.2146-9.5214,9.4986-13.8054,13.7986-1.0346-.164-2.068-.32-3.1013-.476l-9.5666-40.956s-1.6134,14.1334-2.0147,15.628c-2.084,7.788-3.3707,15.6947-5.512,23.46-.64,2.292-3.0653,4.2627-4.6867,6.3894-2.8707-1.4427-6.084-2.5947-8.5466-4.3734-3.436-2.4613-6.3147-5.3853-10.384-8.9333-3.4067,3.4733-6.5894,5.772-8.2414,8.5987-3.9266,6.7173-10.056,8.16-19.4653,8.16-14.9653,0-35.3027-.1707-35.3027-.1707v13.552s20.6121-.2973,36.8641-.2973c8.8226,0,13.8053,1.8813,17.904,7.832,6.5826,9.5586,8.6653,9.3053,17.5986.8626,2.4174-2.2826,6.4054-3.5546,9.6774-5.3026,1.7626,2.5653,4.352,4.9826,5.1026,7.7133,2.1054,7.5427,3.2507,15.2413,5.1254,22.8133.3493,1.4134,1.8813,14.4894,1.8813,14.4894q4.854-20.4521,9.692-40.888c1.0493-.052,2.0987-.0974,3.1467-.1494,4.3293,4.3067,8.6506,8.6067,14.3853,14.3187,2.0973-3.22,3.8613-5.8987,5.616-8.5827,1.124.4907,2.2387.9814,3.3627,1.472.7506,3.5627,1.748,7.1107,2.224,10.6894,3.0493,23.036,5.8906,46.0946,9.112,69.116.476,3.444,2.692,6.7386,4.0987,10.1013,1.1893-.008,2.3653-.008,3.5546-.016,2.172-5.868,4.448-11.7147,6.472-17.6133,2.4907-7.2227,4.552-14.5414,7.348-21.6974.64-1.6133,3.4893-2.7226,5.3187-4.068,1.5467,1.308,3.7413,2.4174,4.5,3.956a69.792,69.792,0,0,1,5.0067,12.72c5.0133,19.2507,9.7133,38.56,14.72,57.8174.624,2.4173,2.3426,4.6706,3.5626,6.992a18.3984,18.3984,0,0,0,5.304-8.8894c4.2547-16.7506,8.1747-33.5533,12.6374-50.2746a54.084,54.084,0,0,1,6.6493-15.888c5.6907-8.6574,12.4-16.9214,18.9533-25.2227,2.9667-3.7413,5.8613-7.8547,10.0853-10.6067,8.3987-5.468,17.6587-10.1466,26.6374-15.0773,1.852-1.012,3.9866-1.7107,6.932-2.9387,1.4507,4.128,2.7293,7.424,3.764,10.7787,3.6293,11.812,6.724,23.7427,11.0533,35.4053,1.1147,3.028,5.9947,5.2147,9.148,7.796,2.7453-2.8413,6.092-5.46,8.0707-8.584,1.6586-2.656,1.7706-5.8986,2.492-8.8893,1.4946-6.2027,2.7-12.4587,4.5826-18.5947.4974-1.6226,3.0934-2.864,4.7307-4.2853,1.3973,1.3467,3.6587,2.552,4.0827,4.0613,1.956,7.0747,3.704,14.2,4.9613,21.3707,3.2213,18.2973,6.0027,36.648,9.336,54.9387.58,3.1386,3.1013,6.0613,4.7307,9.0893,1.2933.044,2.6026.0973,3.9039.1493q6.8061-15.9339,13.62-31.8506c.996.1706,1.9707.32,2.968.4826.676,2.9094,1.7854,5.8027,1.9854,8.7334,1.4133,21.028,2.4773,42.0853,4.0093,63.1133q3.214,44.15,7.052,88.276c.4533,5.1026,2.6854,10.1093,4.0987,15.152,1.16.0226,2.3427.0453,3.5026.0746,1.5027-3.6079,3.8014-7.14,4.3814-10.8373,2.2386-14.4,4.508-28.808,5.6906-43.276,2.3134-28.2573,3.8307-56.56,5.8534-84.84.2307-3.1093,1.6213-6.1747,2.4773-9.268,1.16.0893,2.3054.1627,3.4733.2373q5.278,41.5281,10.5627,83.056h3.168c.692-2.396,1.7413-4.768,2.0387-7.1853,3.0347-25.4013,5.832-50.8107,9.0373-76.1907.5654-4.552,2.6934-8.9706,4.1134-13.448,1.2346-.0373,2.484-.0746,3.712-.104,3.6813,6.032,7.1773,12.1174,11.0533,18.06,3.2573,5.0054,6.24,10.228,10.5613,14.6387,7.0813,7.2227,11.82,6.62,15.4053-1.808a92.4039,92.4039,0,0,0,5.876-19.0787c4.396-23.3786,8.2867-46.824,12.5707-70.2093.5427-2.9827,2.336-5.8173,3.556-8.7253.9667-.0227,1.9187-.052,2.8853-.0747,1.8227,2.7973,4.2107,5.46,5.4,8.3987,3.8014,9.372,6.6427,18.9893,10.9427,28.2053,1.9707,4.2467,6.448,7.788,9.8107,11.656,3.28-3.9507,8.196-7.6093,9.5133-11.916,4.388-14.3187,7.3934-28.876,11.068-43.328,1.4573-5.7573,3.3174-11.4547,4.9907-17.1747,1.0347.0587,2.068.1267,3.1093.1934,6.948,10.316.4987,23.4146,10.696,35.108,1.972-4.0987,3.6307-6.508,4.2694-9.0667,1.868-7.572,3.02-15.2707,5.1026-22.8133.7667-2.7307,3.3627-5.148,5.1254-7.7134,3.2733,1.748,7.26,3.02,9.6693,5.3027,8.9413,8.4427,11.024,8.696,17.6066-.8627,4.084-5.9506,9.0747-7.832,17.904-7.832,16.2454,0,36.856.2974,36.856.2974V348.593s-20.336.1707-35.3014.1707" transform="translate(-5.2565 -4.6724)"/></g></g></g></g><g id="g114"><path id="path116" className="cls-2" d="M1604.8987,466.842V396.2314l-41.8694,14.0653-.7373,56.5453Z" transform="translate(-5.2565 -4.6724)"/></g><g id="g118"><g className="cls-3"><g id="g120"><g id="g126"><path id="path128" className="cls-2" d="M1646.7611,590.4878a70.152,70.152,0,0,1-8.9933,2.2093,45.6988,45.6988,0,0,1-7.6907.744q-13.4,0-19.288-8.264-5.9019-8.256-5.8906-27.224v-49.1l-42.948-15.0693-.8774,66.78q0,34.6779,13.0907,49.5466,13.066,14.8941,43.164,14.884a119.9666,119.9666,0,0,0,15.204-.9826,108.82,108.82,0,0,0,14.884-2.9374Z" transform="translate(-5.2565 -4.6724)"/></g></g></g></g><g id="g130"><path id="path132" className="cls-4" d="M1516.4045,453.6458h124.7614v43.7747Z" transform="translate(-5.2565 -4.6724)"/></g></g></svg>